<svg width="701" height="741" viewBox="0 0 701 741" fill="none" xmlns="http://www.w3.org/2000/svg">
<rect width="53.2998" height="57.5788" transform="matrix(0.891901 0.452232 -0.424501 0.905427 283.929 532.041)" fill="#0E60FF"/>
<rect width="89.5603" height="97.8657" rx="44.7802" transform="matrix(0.980202 0.198001 -0.183606 0.983 269.151 425.281)" fill="#F47458"/>
<path d="M29.4475 713.058C38.2381 730.029 56.8948 737.314 56.8948 737.314C56.8948 737.314 61.2992 717.084 52.5087 700.114C43.7181 683.143 25.0614 675.858 25.0614 675.858C25.0614 675.858 20.657 696.088 29.4475 713.058Z" fill="#201F30"/>
<path d="M35.4896 707.475C51.3602 717.415 57.4724 737.157 57.4724 737.157C57.4724 737.157 37.8534 740.785 21.9828 730.845C6.11226 720.906 0 701.163 0 701.163C0 701.163 19.619 697.536 35.4896 707.475Z" fill="#F47458"/>
<path d="M391.309 214.726H292.288V216.198H391.309V214.726Z" fill="#FFCEAE"/>
<path d="M364.432 215.83H363.018V229.451H364.432V215.83Z" fill="#FFCEAE"/>
<path d="M321.287 215.83H319.873V229.451H321.287V215.83Z" fill="#FFCEAE"/>
<path d="M441.528 285.408H342.507V286.88H441.528V285.408Z" fill="#FFCEAE"/>
<path d="M370.798 272.155H369.383V285.776H370.798V272.155Z" fill="#FFCEAE"/>
<path d="M413.943 272.155H412.528V285.776H413.943V272.155Z" fill="#FFCEAE"/>
<path d="M573.085 318.54H474.063V320.013H573.085V318.54Z" fill="#FFCEAE"/>
<path d="M502.355 305.288H500.94V318.909H502.355V305.288Z" fill="#FFCEAE"/>
<path d="M545.5 305.288H544.085V318.909H545.5V305.288Z" fill="#FFCEAE"/>
<path d="M563.182 660.172H464.161V661.644H563.182V660.172Z" fill="#FFCEAE"/>
<path d="M492.453 646.919H491.039V660.54H492.453V646.919Z" fill="#FFCEAE"/>
<path d="M535.597 646.919H534.183V660.54H535.597V646.919Z" fill="#FFCEAE"/>
<path d="M394.139 423.828H295.117V425.3H394.139V423.828Z" fill="#FFCEAE"/>
<path d="M323.41 410.575H321.995V424.196H323.41V410.575Z" fill="#FFCEAE"/>
<path d="M366.554 410.575H365.14V424.196H366.554V410.575Z" fill="#FFCEAE"/>
<path d="M425.26 601.269H326.239V602.742H425.26V601.269Z" fill="#FFCEAE"/>
<path d="M354.531 588.017H353.116V601.638H354.531V588.017Z" fill="#FFCEAE"/>
<path d="M397.676 588.017H396.261V601.638H397.676V588.017Z" fill="#FFCEAE"/>
<path d="M583.694 547.521H484.673V548.994H583.694V547.521Z" fill="#FFCEAE"/>
<path d="M512.964 534.268H511.55V547.89H512.964V534.268Z" fill="#FFCEAE"/>
<path d="M556.109 534.268H554.694V547.89H556.109V534.268Z" fill="#FFCEAE"/>
<path d="M272.803 711.545L108.398 678.336L108.628 677.105L271.849 710.076L283.003 650.361L133.603 620.182L129.285 602.976L130.451 602.659L134.577 619.1L284.416 649.368L272.803 711.545Z" fill="#201F30"/>
<path d="M124.645 712.921C131.504 714.306 138.145 709.642 139.479 702.502C140.812 695.362 136.333 688.451 129.475 687.065C122.616 685.68 115.974 690.344 114.641 697.484C113.307 704.624 117.786 711.535 124.645 712.921Z" fill="#3F3D56"/>
<path d="M247.062 737.649C253.92 739.035 260.562 734.37 261.895 727.23C263.229 720.09 258.75 713.179 251.891 711.793C245.032 710.408 238.391 715.073 237.057 722.213C235.724 729.352 240.203 736.264 247.062 737.649Z" fill="#3F3D56"/>
<path d="M443.563 487.308C447.809 488.166 451.92 485.278 452.745 480.858C453.571 476.438 450.798 472.16 446.552 471.302C442.306 470.444 438.195 473.332 437.369 477.752C436.544 482.172 439.317 486.45 443.563 487.308Z" fill="#3F3D56"/>
<path d="M305.565 633.836L120.773 596.508L106.2 452.38L372.155 506.103L371.763 506.855L305.565 633.836ZM121.878 595.454L304.927 632.43L370.312 507.009L107.569 453.935L121.878 595.454Z" fill="#201F30"/>
<path d="M243.913 593.722L143.038 591.95L122.43 516.577L267.609 519.128L267.47 519.567L243.913 593.722Z" fill="#00FFC2"/>
<path d="M377.738 494.618L376.653 494.071L390.178 465.025L435.579 474.196L435.349 475.428L390.858 466.441L377.738 494.618Z" fill="#201F30"/>
<path d="M351.161 544.665L111.417 496.237L111.188 497.468L350.931 545.896L351.161 544.665Z" fill="#201F30"/>
<path d="M328.959 587.252L116.276 544.29L116.046 545.522L328.729 588.483L328.959 587.252Z" fill="#201F30"/>
<path d="M239.651 479.976L238.468 479.737L213.286 614.557L214.469 614.796L239.651 479.976Z" fill="#201F30"/>
<path d="M292.612 490.634L258.941 623.736L260.106 624.055L293.778 490.953L292.612 490.634Z" fill="#201F30"/>
<path d="M185.546 469.006L184.35 468.847L167.609 605.372L168.805 605.53L185.546 469.006Z" fill="#201F30"/>
<path d="M421.131 233.845C421.131 233.845 431.47 264.479 425.108 269.192C418.745 273.904 446.582 312.393 446.582 312.393L479.987 302.967L461.694 270.763C461.694 270.763 459.308 238.558 459.308 233.845C459.308 229.132 421.131 233.845 421.131 233.845Z" fill="#FFD6BA"/>
<path opacity="0.1" d="M421.131 233.845C421.131 233.845 431.47 264.479 425.108 269.192C418.745 273.904 446.582 312.393 446.582 312.393L479.987 302.967L461.694 270.763C461.694 270.763 459.308 238.558 459.308 233.845C459.308 229.132 421.131 233.845 421.131 233.845Z" fill="black"/>
<path d="M403.776 452.208C403.776 452.208 400.758 491.482 403.776 511.905C406.794 532.327 411.321 588.882 411.321 588.882C411.321 588.882 411.321 695.707 427.922 697.278C444.522 698.849 456.595 700.42 458.104 694.136C459.613 687.852 450.559 684.71 455.086 681.568C459.613 678.426 461.122 667.429 455.086 654.862C449.049 642.294 455.086 515.047 455.086 515.047L483.759 595.165C483.759 595.165 486.778 661.146 489.796 670.571C492.814 679.997 486.778 697.278 497.341 698.849C507.905 700.42 519.978 690.994 526.015 687.852C532.051 684.71 516.96 684.71 519.978 683.139C522.996 681.568 532.051 676.855 529.033 675.284C526.015 673.713 522.996 598.307 522.996 598.307C522.996 598.307 514.696 437.284 504.132 431.001C493.569 424.717 486.778 435.54 486.778 435.54L403.776 452.208Z" fill="#201F30"/>
<path d="M430.94 690.994V703.561C430.94 703.561 417.357 737.724 430.94 737.724C444.522 737.724 455.085 741.264 455.085 736.551V694.136L430.94 690.994Z" fill="#201F30"/>
<path d="M516.07 689.752L518.052 702.149C518.052 702.149 536.839 733.532 523.441 735.849C510.043 738.166 500.181 743.46 499.437 738.811L492.746 696.97L516.07 689.752Z" fill="#201F30"/>
<path d="M429.639 255.135C444.099 259.292 459.065 250.46 463.067 235.407C467.068 220.355 458.59 204.782 444.13 200.625C429.67 196.468 414.704 205.3 410.702 220.353C406.701 235.405 415.179 250.978 429.639 255.135Z" fill="#FFD6BA"/>
<path d="M433.959 280.974C433.959 280.974 441.504 304.538 453.577 299.826L465.65 295.113L486.778 445.924C486.778 445.924 470.178 471.06 446.032 455.35C421.886 439.641 433.959 280.974 433.959 280.974Z" fill="white"/>
<path d="M455.086 276.261L461.877 261.337C461.877 261.337 501.869 280.974 507.905 287.258C513.942 293.541 513.942 302.967 513.942 302.967L503.378 342.241C503.378 342.241 506.396 428.644 506.396 431.786C506.396 434.928 516.96 452.208 509.415 445.924C501.869 439.64 500.36 433.357 494.323 442.782C488.287 452.208 474.705 463.205 474.705 463.205L455.086 276.261Z" fill="#F47458"/>
<path d="M507.905 389.37L503.378 433.357C503.378 433.357 476.214 458.492 482.25 460.063C488.287 461.634 491.305 455.35 491.305 455.35C491.305 455.35 501.869 466.347 507.905 460.063C513.942 453.779 529.033 394.083 529.033 394.083L507.905 389.37Z" fill="#FFD6BA"/>
<path d="M447.683 189.522C441.936 187.637 435.753 185.744 429.993 187.593C427.307 188.58 424.797 190.025 422.566 191.868C416.133 196.77 409.916 203.478 409.618 211.769L411.896 211.526C411.344 213.603 410.355 215.527 409.001 217.158C409.524 216.365 410.117 218.06 409.621 218.872L405.3 225.957C409.401 225.606 413.268 229.815 412.749 234.064C415.397 225.154 419.031 215.108 427.431 211.86C431.668 210.222 436.352 210.696 440.842 211.213C444.985 211.69 449.312 212.253 452.75 214.704C456.187 217.156 458.348 222.131 456.4 225.968C458.319 225.843 459.941 227.677 460.353 229.632C460.765 231.586 460.276 233.61 459.79 235.546C461.292 237.457 464.142 235.34 465.5 233.314C468.687 228.559 471.765 223.407 472.264 217.634C472.763 211.86 469.857 205.37 464.494 203.809C465.344 203.251 465.952 202.371 466.19 201.356L461.869 199.695C463.036 199.852 464.22 199.582 465.217 198.932C462.9 200.455 450.526 190.454 447.683 189.522Z" fill="#201F30"/>
<path d="M441.504 271.548C441.504 271.548 429.219 259.016 424.798 259.784C420.377 260.552 414.34 271.548 414.34 271.548C414.34 271.548 378.121 284.116 379.63 296.684C381.139 309.251 397.74 370.518 397.74 370.518C397.74 370.518 411.322 444.353 399.249 452.208C387.176 460.063 456.595 480.485 458.105 471.06C459.614 461.634 462.632 367.377 458.105 353.238C453.577 339.099 441.504 271.548 441.504 271.548Z" fill="#F47458"/>
<path d="M494.324 296.684H512.984C512.984 296.684 526.015 356.38 527.524 362.664C529.034 368.948 532.052 398.796 530.543 398.796C529.033 398.796 498.851 392.512 498.851 397.225L494.324 296.684Z" fill="#F47458"/>
<path d="M493.691 454.511H422.255C415.283 421.128 414.701 388.875 422.255 358.059H493.691C482.163 388.32 481.443 420.353 493.691 454.511Z" fill="#FFCEAE"/>
<path d="M393.212 408.508L414.34 417.934C414.34 417.934 455.086 424.218 455.086 406.938C455.086 389.657 414.34 399.083 414.34 399.083L400.757 394.562L393.212 408.508Z" fill="#FFD6BA"/>
<path d="M397.739 287.258L379.63 291.971L366.047 375.231C366.047 375.231 361.52 397.225 369.066 398.796C376.611 400.367 397.739 412.934 397.739 412.934C397.739 412.934 400.757 389.37 406.794 389.37L391.703 376.802L400.757 321.819L397.739 287.258Z" fill="#F47458"/>
<path d="M141.635 448.124H42.6133V449.597H141.635V448.124Z" fill="#FFCEAE"/>
<path d="M70.9055 434.872H69.491V448.493H70.9055V434.872Z" fill="#FFCEAE"/>
<path d="M114.05 434.872H112.636V448.493H114.05V434.872Z" fill="#FFCEAE"/>
<path d="M176.292 230.187H77.271V231.66H176.292V230.187Z" fill="#FFCEAE"/>
<path d="M149.415 231.292H148V244.913H149.415V231.292Z" fill="#FFCEAE"/>
<path d="M106.27 231.292H104.856V244.913H106.27V231.292Z" fill="#FFCEAE"/>
<path d="M295.252 375.233H196.231V376.706H295.252V375.233Z" fill="#FFCEAE"/>
<path d="M268.376 376.338H266.961V389.959H268.376V376.338Z" fill="#FFCEAE"/>
<path d="M225.23 376.338H223.816V389.959H225.23V376.338Z" fill="#FFCEAE"/>
<path d="M107.685 374.497H8.66382V375.97H107.685V374.497Z" fill="#FFCEAE"/>
<path d="M80.8079 375.602H79.3933V389.223H80.8079V375.602Z" fill="#FFCEAE"/>
<path d="M37.6621 375.602H36.2476V389.223H37.6621V375.602Z" fill="#FFCEAE"/>
<path d="M226.51 300.87H127.489V302.342H226.51V300.87Z" fill="#FFCEAE"/>
<path d="M155.781 287.617H154.366V301.238H155.781V287.617Z" fill="#FFCEAE"/>
<path d="M198.926 287.617H197.511V301.238H198.926V287.617Z" fill="#FFCEAE"/>
</svg>
